<svg xmlns="http://www.w3.org/2000/svg" viewBox="0 0 280 60" fill="none">
  <!-- Z Letter -->
  <path d="M10 12 L50 12 L50 20 L22 20 L22 25 L48 25 L48 33 L22 33 L22 48 L10 48 Z" fill="white"/>
  <!-- E Letter -->
  <path d="M56 12 L88 12 L88 20 L66 20 L66 25 L84 25 L84 33 L66 33 L66 40 L88 40 L88 48 L56 48 Z" fill="white"/>
  <!-- R Letter -->
  <path d="M94 12 L124 12 C132 12 136 16 136 24 C136 28 134 31 130 33 L138 48 L124 48 L118 36 L118 48 L106 48 L106 12 Z M118 26 C118 22 116 20 112 20 C108 20 106 22 106 26 C106 30 108 32 112 32 C116 32 118 30 118 26 Z" fill="white"/>
  
  <!-- Circle/nerd icon -->
  <circle cx="160" cy="30" r="16" stroke="white" stroke-width="2" fill="none"/>
  <circle cx="155" cy="26" r="3" fill="white"/>
  <circle cx="165" cy="26" r="3" fill="white"/>
  <path d="M152 34 Q160 40 168 34" stroke="white" stroke-width="2" fill="none" stroke-linecap="round"/>
  
  <!-- N letter -->
  <path d="M185 12 L185 48 L197 48 L197 22 L197 48 L209 48 L209 12 L209 36 L209 12 L221 12 L221 48 L209 48 L209 36 L209 48 L197 48 L197 22 L197 48 L185 48 L185 12 Z" fill="white"/>
  <!-- E letter -->
  <path d="M228 12 L260 12 L260 20 L238 20 L238 25 L256 25 L256 33 L238 33 L238 40 L260 40 L260 48 L228 48 Z" fill="white"/>
  <!-- R letter -->
  <path d="M266 12 L296 12 C304 12 308 16 308 24 C308 28 306 31 302 33 L310 48 L296 48 L290 36 L290 48 L278 48 L278 12 Z M290 26 C290 22 288 20 284 20 C280 20 278 22 278 26 C278 30 280 32 284 32 C288 32 290 30 290 26 Z" fill="white"/>
  <!-- D letter -->
  <path d="M316 12 L344 12 C356 12 362 20 362 30 C362 40 356 48 344 48 L344 48 L316 48 Z M330 20 L330 40 L340 40 C346 40 350 36 350 30 C350 24 346 20 340 20 Z" fill="white"/>
  <!-- S letter -->
  <path d="M370 16 C370 12 378 12 382 14 C386 16 388 18 388 22 C388 26 386 28 382 29 C378 30 372 32 372 38 C372 44 378 48 386 48 C394 48 398 44 398 40 L386 40 C386 42 384 44 382 44 C380 44 378 42 378 40 C378 36 378 34 382 33 C386 32 392 30 392 24 C392 18 386 12 374 12 C366 12 362 16 362 20 L374 20 C374 18 376 16 378 16 Z" fill="white"/>
</svg>
